<?xml version="1.0" standalone="no"?>
<!DOCTYPE svg PUBLIC "-//W3C//DTD SVG 20010904//EN"
 "http://www.w3.org/TR/2001/REC-SVG-20010904/DTD/svg10.dtd">
<svg version="1.0" xmlns="http://www.w3.org/2000/svg"
 width="512.000000pt" height="512.000000pt" viewBox="0 0 512.000000 512.000000"
 preserveAspectRatio="xMidYMid meet">
<metadata>
Created by potrace 1.11, written by Peter Selinger 2001-2013
</metadata>
<g transform="translate(0.000000,512.000000) scale(0.100000,-0.100000)"
fill="#000000" stroke="none">
<path d="M422 5100 c-96 -27 -167 -68 -241 -140 -78 -75 -112 -126 -149 -219
l-27 -66 -2 -2085 c-3 -2293 -7 -2138 59 -2275 32 -67 150 -205 176 -205 7 0
12 -4 12 -9 0 -9 118 -70 148 -76 10 -2 37 -8 62 -14 31 -7 684 -10 2125 -8
1991 2 2082 3 2130 20 75 28 155 68 155 78 0 5 6 9 13 9 19 0 119 109 155 167
17 29 42 81 54 115 l23 63 0 2105 c0 2007 -1 2107 -18 2155 -26 72 -68 155
-78 155 -5 0 -9 6 -9 13 0 15 -113 127 -129 127 -6 0 -11 3 -11 8 0 10 -55 40
-130 71 l-65 26 -2095 1 c-1978 2 -2099 1 -2158 -16z"/>
</g>
</svg>
